<?xml version="1.0" encoding="UTF-8"?>
<svg id="Layer_1" xmlns="http://www.w3.org/2000/svg" version="1.1" viewBox="0 0 344 244.2">
  <!-- Generator: Adobe Illustrator 29.6.1, SVG Export Plug-In . SVG Version: 2.1.1 Build 9)  -->
  <g>
    <path d="M63.8,26.4L0,90.2c35.2,35.2,92.3,35.2,127.5,0l63.8-63.8c-35.2-35.2-92.3-35.2-127.5,0Z" fill="#fff"/>
    <path d="M140.1,217.7c-35.2,35.2-92.3,35.2-127.6,0L203.8,26.4c35.2-35.2,92.3-35.2,127.6,0l-191.3,191.3Z" fill="#fff"/>
    <path d="M216.5,154l-63.8,63.8c35.2,35.2,92.3,35.2,127.5,0l63.8-63.8c-35.2-35.2-92.3-35.2-127.5,0Z" fill="#fff"/>
  </g>
  <path d="M344,224.2c0,3-.5,5.7-1.6,8.2-1.1,2.5-2.5,4.6-4.3,6.3-1.8,1.7-3.9,3.1-6.2,4.1-2.4,1-4.8,1.4-7.4,1.4s-5.5-.5-7.9-1.5c-2.4-1-4.5-2.4-6.2-4.2-1.7-1.8-3.1-3.9-4.1-6.3-1-2.4-1.5-5.1-1.5-7.9s.5-5.7,1.6-8.2c1-2.5,2.5-4.6,4.3-6.3,1.8-1.7,3.9-3.1,6.3-4.1,2.4-1,4.9-1.4,7.5-1.4s5.1.5,7.4,1.4c2.4,1,4.4,2.3,6.2,4.1,1.8,1.7,3.2,3.8,4.3,6.3,1,2.5,1.6,5.2,1.6,8.2ZM339.7,224.2c0-2.4-.4-4.6-1.2-6.7-.8-2-1.9-3.8-3.3-5.2-1.4-1.5-3-2.6-4.9-3.4-1.9-.8-3.8-1.2-6-1.2s-4.2.4-6.1,1.2-3.5,1.9-4.9,3.4c-1.4,1.5-2.5,3.2-3.3,5.2-.8,2-1.2,4.3-1.2,6.7s.4,4.4,1.1,6.4c.7,2,1.7,3.7,3.1,5.2,1.3,1.5,2.9,2.7,4.8,3.6,1.9.9,4,1.3,6.4,1.3s4.1-.4,6-1.2c1.9-.8,3.5-1.9,4.9-3.4,1.4-1.5,2.5-3.2,3.3-5.2.8-2,1.2-4.2,1.2-6.7ZM334.6,228c-.2,1.3-.6,2.4-1.2,3.4-.6,1-1.3,1.9-2.1,2.6-.8.7-1.8,1.3-2.8,1.6-1.1.4-2.2.6-3.3.6-1.7,0-3.3-.3-4.6-.9-1.4-.6-2.6-1.4-3.6-2.5-1-1.1-1.8-2.4-2.3-3.8-.5-1.5-.8-3.1-.8-4.8s.3-3.1.8-4.5c.5-1.4,1.3-2.6,2.2-3.6s2.1-1.8,3.5-2.4c1.4-.6,3-.9,4.7-.9s4.6.7,6.3,2.1c1.8,1.4,2.8,3.4,3.2,6h-3.6c-.3-1.4-1-2.5-2-3.3-1.1-.9-2.3-1.3-3.9-1.3s-2.1.2-3,.6c-.9.4-1.6,1-2.2,1.7-.6.7-1,1.6-1.3,2.5-.3,1-.5,2-.5,3.1s.2,2.3.5,3.3c.3,1,.8,1.9,1.4,2.7.6.8,1.4,1.4,2.2,1.9.9.5,1.8.7,2.9.7,1.6,0,2.9-.4,4-1.3,1-.9,1.6-2,1.8-3.4h3.7Z" fill="#fff"/>
</svg>